<svg width="16" height="16" viewBox="0 0 16 16" fill="none" xmlns="http://www.w3.org/2000/svg">
<g clip-path="url(#clip0_0_16770)">
<path opacity="0.3" d="M11.396 0.333313H13.6292C14.9384 0.333313 15.9998 1.38544 15.9998 2.68331V13.65C15.9998 14.9478 14.9384 16 13.6292 16H11.396V0.333313Z" fill="#328CFF"/>
<path d="M1.12346 0.333313H10.6059C11.9152 0.333313 12.9765 1.38544 12.9765 2.68331V13.65C12.9765 14.9478 11.9152 16 10.6059 16H1.12346C0.687039 16 0.333252 15.6493 0.333252 15.2166V1.11665C0.333252 0.684023 0.687039 0.333313 1.12346 0.333313Z" fill="#328CFF"/>
<path fill-rule="evenodd" clip-rule="evenodd" d="M1.12346 0.333313H11.2587C12.5679 0.333313 13.6293 1.38544 13.6293 2.68331V13.65C13.6293 14.9478 12.5679 16 11.2587 16H1.12346C0.687039 16 0.333252 15.6493 0.333252 15.2166V1.11665C0.333252 0.684023 0.687039 0.333313 1.12346 0.333313ZM6.74424 7.38331C7.61708 7.38331 8.32465 6.68189 8.32465 5.81665C8.32465 4.9514 7.61708 4.24998 6.74424 4.24998C5.8714 4.24998 5.16383 4.9514 5.16383 5.81665C5.16383 6.68189 5.8714 7.38331 6.74424 7.38331ZM3.26373 12.0833C3.15363 12.0833 2.93537 11.8185 2.94464 11.6913C3.1148 9.35463 4.81534 8.16665 6.88806 8.16665C8.98995 8.16665 10.7168 9.28936 10.8455 11.6916C10.8506 11.7873 10.8455 12.0833 10.5157 12.0833H3.26373Z" fill="white"/>
</g>
<defs>
<clipPath id="clip0_0_16770">
<rect width="16" height="16" fill="white"/>
</clipPath>
</defs>
</svg>
