<svg width="16" height="16" viewBox="0 0 16 16" fill="none" xmlns="http://www.w3.org/2000/svg">
<g clip-path="url(#clip0_0_16779)">
<path d="M6.54367 6.44523V5.80951H1.03766L1.02979 12.6435C1.02979 13.3491 1.73084 13.9149 2.60518 13.9149H13.633C14.5073 13.9149 15.2084 13.3491 15.2084 12.6435V5.80951H9.69447V6.44523H6.54367Z" fill="#328CFF"/>
<path d="M14.4207 3.31446H11.9237V1.77057L10.3483 0.226685H5.8742L4.30668 1.77057V3.31446H1.82149C0.951084 3.31446 0.246094 4.00535 0.246094 4.85835V7.83585C0.246094 8.68885 0.951084 9.37974 1.82149 9.37974H6.54768V7.83585H9.69848V9.37974H14.4247C15.2951 9.37974 16.0001 8.68885 16.0001 7.83585V4.85835C15.9961 4.00535 15.2911 3.31446 14.4207 3.31446Z" fill="white"/>
<path d="M6.54367 11.5853V10.8134H1.03766L1.02979 14.5628C1.02979 15.4197 1.73084 16.1067 2.60518 16.1067H13.633C14.5073 16.1067 15.2084 15.4197 15.2084 14.5628V10.8134H9.69447V11.5853H6.54367Z" fill="white"/>
<path d="M9.69059 3.31446H6.53979V1.77057H9.69059V3.31446Z" fill="#328CFF"/>
</g>
<defs>
<clipPath id="clip0_0_16779">
<rect width="16" height="16" fill="white"/>
</clipPath>
</defs>
</svg>
