<svg width="16" height="16" viewBox="0 0 16 16" fill="none" xmlns="http://www.w3.org/2000/svg">
<g clip-path="url(#clip0_0_16785)">
<path d="M7.99984 0.666626C9.33028 0.666626 10.5573 0.994462 11.6808 1.65013C12.8044 2.3058 13.694 3.19542 14.3497 4.31897C15.0053 5.44252 15.3332 6.66952 15.3332 7.99996C15.3332 9.3304 15.0053 10.5574 14.3497 11.6809C13.694 12.8045 12.8044 13.6941 11.6808 14.3498C10.5573 15.0055 9.33028 15.3333 7.99984 15.3333C6.6694 15.3333 5.4424 15.0055 4.31885 14.3498C3.19529 13.6941 2.30568 12.8045 1.65001 11.6809C0.994339 10.5574 0.666504 9.3304 0.666504 7.99996C0.666504 6.66952 0.994339 5.44252 1.65001 4.31897C2.30568 3.19542 3.19529 2.3058 4.31885 1.65013C5.4424 0.994462 6.6694 0.666626 7.99984 0.666626Z" fill="#328CFF"/>
<path fill-rule="evenodd" clip-rule="evenodd" d="M7.83325 0.333313C9.19393 0.333313 10.4488 0.668599 11.5979 1.33917C12.747 2.00975 13.6568 2.91958 14.3274 4.06866C14.998 5.21775 15.3333 6.47264 15.3333 7.83331C15.3333 9.19399 14.998 10.4489 14.3274 11.598C13.6568 12.7471 12.747 13.6569 11.5979 14.3275C10.4488 14.998 9.19393 15.3333 7.83325 15.3333C6.47258 15.3333 5.21769 14.998 4.0686 14.3275C2.91952 13.6569 2.00968 12.7471 1.33911 11.598C0.668538 10.4489 0.333252 9.19399 0.333252 7.83331C0.333252 6.47264 0.668538 5.21775 1.33911 4.06866C2.00968 2.91958 2.91952 2.00975 4.0686 1.33917C5.21769 0.668599 6.47258 0.333313 7.83325 0.333313ZM10.509 5.42125C10.496 5.42776 10.4651 5.45869 10.4163 5.51402C10.3701 5.56631 10.3283 5.59681 10.2909 5.6055C10.3023 5.60106 10.3147 5.58521 10.3284 5.55797C10.3446 5.52542 10.3609 5.48961 10.3772 5.45055C10.3935 5.41149 10.4049 5.3887 10.4114 5.38219C10.4504 5.33662 10.5221 5.28779 10.6262 5.2357C10.7174 5.19664 10.8866 5.15758 11.134 5.11852C11.3554 5.06643 11.5214 5.10224 11.6321 5.22594C11.6191 5.21292 11.65 5.1706 11.7249 5.09899C11.7997 5.02737 11.8469 4.98831 11.8665 4.9818C11.886 4.96878 11.9348 4.95413 12.0129 4.93785C12.0911 4.92158 12.1399 4.89716 12.1594 4.86461L12.179 4.64977C12.1008 4.65628 12.0439 4.63349 12.0081 4.58141C11.9722 4.52932 11.9511 4.46096 11.9446 4.37633C11.9446 4.38935 11.925 4.41539 11.886 4.45445C11.886 4.40888 11.8713 4.38284 11.842 4.37633C11.8127 4.36982 11.7753 4.37307 11.7297 4.38609C11.6842 4.39912 11.6549 4.40237 11.6418 4.39586C11.5767 4.37633 11.5279 4.35191 11.4954 4.32262C11.4628 4.29332 11.4368 4.23961 11.4172 4.16149C11.3977 4.08336 11.3847 4.03453 11.3782 4.015C11.3652 3.98245 11.3342 3.94664 11.2854 3.90758C11.2366 3.86852 11.2056 3.83596 11.1926 3.80992C11.1861 3.7969 11.178 3.779 11.1682 3.75621C11.1584 3.73343 11.1487 3.71227 11.1389 3.69274C11.1292 3.6732 11.1161 3.6553 11.0999 3.63902C11.0836 3.62275 11.0657 3.61461 11.0461 3.61461C11.0266 3.61461 11.0038 3.63089 10.9778 3.66344C10.9517 3.69599 10.9273 3.72854 10.9045 3.76109C10.8818 3.79365 10.8671 3.80992 10.8606 3.80992C10.8411 3.7969 10.8215 3.79202 10.802 3.79527C10.7825 3.79853 10.7678 3.80178 10.7581 3.80504C10.7483 3.8083 10.7336 3.81806 10.7141 3.83434C10.6946 3.85061 10.6783 3.86201 10.6653 3.86852C10.6458 3.88154 10.6181 3.8913 10.5823 3.89781C10.5465 3.90432 10.5188 3.91083 10.4993 3.91734C10.5969 3.88479 10.5937 3.84899 10.4895 3.80992C10.4244 3.78388 10.3723 3.77412 10.3333 3.78063C10.3918 3.75458 10.4163 3.71552 10.4065 3.66344C10.3967 3.61135 10.3691 3.56578 10.3235 3.52672H10.3723C10.3658 3.50068 10.3381 3.47301 10.2893 3.44371C10.2405 3.41441 10.1835 3.38675 10.1184 3.3607C10.0533 3.33466 10.011 3.31513 9.99146 3.30211C9.93937 3.26956 9.8287 3.23863 9.65942 3.20934C9.49015 3.18004 9.38273 3.17841 9.33716 3.20445C9.30461 3.24352 9.28996 3.2777 9.29321 3.30699C9.29647 3.33629 9.30949 3.38186 9.33228 3.44371C9.35506 3.50556 9.36646 3.54625 9.36646 3.56578C9.37297 3.60484 9.35506 3.64716 9.31274 3.69274C9.27043 3.73831 9.24927 3.77737 9.24927 3.80992C9.24927 3.8555 9.29484 3.90595 9.38599 3.96129C9.47713 4.01663 9.50968 4.08662 9.48364 4.17125C9.46411 4.22333 9.41203 4.27542 9.32739 4.3275C9.24276 4.37958 9.19067 4.41865 9.17114 4.44469C9.13859 4.49677 9.13371 4.55699 9.15649 4.62535C9.17928 4.69371 9.21346 4.74742 9.25903 4.78649C9.27205 4.79951 9.27694 4.81253 9.27368 4.82555C9.27043 4.83857 9.25903 4.85322 9.2395 4.86949C9.21997 4.88577 9.20207 4.89879 9.18579 4.90856C9.16952 4.91832 9.14836 4.92971 9.12231 4.94274L9.09302 4.96227C9.0214 4.99482 8.95467 4.97529 8.89282 4.90367C8.83097 4.83206 8.78703 4.74742 8.76099 4.64977C8.71541 4.48701 8.66333 4.38935 8.60474 4.3568C8.455 4.30471 8.3606 4.30797 8.32153 4.36656C8.28898 4.28193 8.15552 4.19729 7.92114 4.11266C7.75838 4.05406 7.56958 4.04104 7.35474 4.07359C7.3938 4.06708 7.3938 4.01826 7.35474 3.92711C7.30916 3.82945 7.24731 3.79039 7.16919 3.80992C7.18872 3.77086 7.20174 3.71389 7.20825 3.63902C7.21476 3.56415 7.21802 3.52021 7.21802 3.50719C7.23755 3.42255 7.27661 3.34768 7.33521 3.28258C7.34172 3.27607 7.3645 3.2484 7.40356 3.19957C7.44263 3.15074 7.47355 3.1068 7.49634 3.06773C7.51912 3.02867 7.52075 3.00914 7.50122 3.00914C7.72909 3.03518 7.89185 2.99938 7.9895 2.90172C8.02205 2.86917 8.05949 2.81383 8.10181 2.7357C8.14412 2.65758 8.1783 2.60224 8.20435 2.56969C8.26294 2.53063 8.30851 2.51272 8.34106 2.51598C8.37362 2.51923 8.42082 2.53714 8.48267 2.56969C8.54452 2.60224 8.59172 2.61852 8.62427 2.61852C8.71541 2.62503 8.76587 2.58922 8.77563 2.51109C8.7854 2.43297 8.76099 2.36787 8.70239 2.31578C8.78052 2.32229 8.79028 2.26695 8.73169 2.14977C8.70565 2.10419 8.67961 2.0749 8.65356 2.06188C8.57544 2.03583 8.48755 2.05211 8.38989 2.1107C8.33833 2.13649 8.3442 2.16227 8.40749 2.18805C8.39802 2.18781 8.36774 2.22225 8.31665 2.29137C8.26131 2.36624 8.2076 2.4232 8.15552 2.46227C8.10343 2.50133 8.05135 2.48505 7.99927 2.41344C7.99276 2.40693 7.97485 2.36298 7.94556 2.2816C7.91626 2.20022 7.88534 2.15628 7.85278 2.14977C7.8007 2.14977 7.74862 2.19859 7.69653 2.29625C7.71606 2.24417 7.68026 2.19534 7.58911 2.14977C7.49797 2.10419 7.41984 2.07815 7.35474 2.07164C7.47843 1.99352 7.45239 1.90563 7.27661 1.80797C7.23104 1.78193 7.16431 1.76565 7.07642 1.75914C6.98853 1.75263 6.92505 1.76565 6.88599 1.7982C6.85343 1.84378 6.83553 1.88121 6.83228 1.91051C6.82902 1.93981 6.8453 1.96585 6.8811 1.98863C6.91691 2.01142 6.95109 2.02932 6.98364 2.04234C7.01619 2.05537 7.05363 2.06839 7.09595 2.08141C7.13827 2.09443 7.16593 2.10419 7.17896 2.1107C7.2701 2.17581 7.29614 2.22138 7.25708 2.24742C7.24406 2.25393 7.21639 2.26533 7.17407 2.2816C7.13175 2.29788 7.09432 2.31253 7.06177 2.32555C7.02922 2.33857 7.00968 2.35159 7.00317 2.36461C6.98364 2.39065 6.98364 2.43622 7.00317 2.50133C7.02271 2.56643 7.01619 2.61201 6.98364 2.63805C6.95109 2.6055 6.92179 2.54853 6.89575 2.46715C6.86971 2.38577 6.84692 2.33206 6.82739 2.30602C6.87297 2.36461 6.79159 2.38414 6.58325 2.36461L6.4856 2.35484C6.45955 2.35484 6.40747 2.36135 6.32935 2.37438C6.25122 2.3874 6.18449 2.39065 6.12915 2.38414C6.07381 2.37763 6.02987 2.35159 5.99731 2.30602C5.97127 2.25393 5.97127 2.18883 5.99731 2.1107C6.00383 2.08466 6.01685 2.07815 6.03638 2.09117C6.01034 2.07164 5.97453 2.04072 5.92896 1.9984C5.88338 1.95608 5.85083 1.92841 5.8313 1.91539C5.53182 2.01305 5.22583 2.14651 4.91333 2.31578C4.95239 2.32229 4.99146 2.31904 5.03052 2.30602C5.06307 2.293 5.10539 2.27184 5.15747 2.24254C5.20955 2.21324 5.24211 2.19534 5.25513 2.18883C5.47648 2.09768 5.6132 2.0749 5.66528 2.12047L5.71411 2.07164C5.80526 2.17581 5.87036 2.25719 5.90942 2.31578C5.86385 2.28974 5.76619 2.28648 5.61646 2.30602C5.48625 2.34508 5.41463 2.38414 5.40161 2.4232C5.44718 2.50133 5.46346 2.55992 5.45044 2.59898C5.4244 2.57945 5.38696 2.5469 5.33813 2.50133C5.28931 2.45576 5.24211 2.41995 5.19653 2.39391C5.15096 2.36787 5.10213 2.35159 5.05005 2.34508C4.94588 2.34508 4.87427 2.34833 4.83521 2.35484C3.88468 2.87568 3.11971 3.59833 2.54028 4.52281C2.58586 4.56839 2.62492 4.59443 2.65747 4.60094C2.68351 4.60745 2.69979 4.63675 2.7063 4.68883C2.71281 4.74091 2.72095 4.77672 2.73071 4.79625C2.74048 4.81578 2.77791 4.80602 2.84302 4.76695C2.90161 4.81904 2.91138 4.88089 2.87231 4.9525C2.87882 4.94599 3.02205 5.03388 3.302 5.21617C3.4257 5.32685 3.49406 5.39521 3.50708 5.42125C3.52661 5.49287 3.49406 5.55146 3.40942 5.59703C3.40291 5.58401 3.37362 5.55471 3.32153 5.50914C3.26945 5.46357 3.24015 5.45055 3.23364 5.47008C3.21411 5.50263 3.21574 5.56285 3.23853 5.65074C3.25982 5.7329 3.29108 5.77381 3.33229 5.77348C3.2915 5.77987 3.2635 5.83173 3.24829 5.92906C3.23201 6.03323 3.22388 6.14879 3.22388 6.27574C3.22388 6.4027 3.22062 6.47919 3.21411 6.50524L3.23364 6.515C3.21411 6.59313 3.23201 6.70543 3.28735 6.85191C3.34269 6.9984 3.41268 7.06188 3.49731 7.04234C3.41268 7.06188 3.47778 7.20185 3.69263 7.46227C3.73169 7.51435 3.75773 7.54365 3.77075 7.55016C3.79028 7.56318 3.82935 7.58759 3.88794 7.6234C3.94653 7.65921 3.99536 7.69176 4.03442 7.72106C4.07349 7.75035 4.10604 7.78453 4.13208 7.82359C4.15812 7.85615 4.19067 7.92939 4.22974 8.04332C4.2688 8.15725 4.31437 8.23375 4.36646 8.27281C4.35343 8.31188 4.38436 8.37698 4.45923 8.46813C4.5341 8.55927 4.56828 8.63414 4.56177 8.69274C4.55526 8.69274 4.54712 8.69599 4.53735 8.7025C4.52759 8.70901 4.51945 8.71227 4.51294 8.71227C4.53247 8.75784 4.58293 8.80341 4.66431 8.84899C4.74569 8.89456 4.79614 8.93688 4.81567 8.97594C4.82218 8.99547 4.82869 9.02802 4.83521 9.0736C4.84172 9.11917 4.85148 9.15497 4.8645 9.18102C4.87752 9.20706 4.90356 9.21357 4.94263 9.20055C4.95565 9.07034 4.87752 8.86852 4.70825 8.59508C4.6106 8.43232 4.55526 8.33792 4.54224 8.31188C4.52271 8.27932 4.5048 8.22887 4.48853 8.16051C4.47225 8.09215 4.4576 8.04495 4.44458 8.01891C4.4576 8.01891 4.47713 8.02379 4.50317 8.03356C4.52922 8.04332 4.55688 8.05471 4.58618 8.06774C4.61548 8.08076 4.63989 8.09378 4.65942 8.1068C4.67896 8.11982 4.68547 8.12958 4.67896 8.13609C4.65942 8.18167 4.66593 8.23863 4.69849 8.30699C4.73104 8.37535 4.7701 8.43557 4.81567 8.48766C4.86125 8.53974 4.91659 8.60159 4.98169 8.6732C5.04679 8.74482 5.08586 8.78714 5.09888 8.80016C5.13794 8.83922 5.18351 8.9027 5.2356 8.99059C5.28768 9.07848 5.28768 9.12242 5.2356 9.12242C5.29419 9.12242 5.35929 9.1566 5.43091 9.22496C5.50252 9.29332 5.55786 9.3568 5.59692 9.41539C5.62948 9.46747 5.65552 9.55211 5.67505 9.6693C5.69458 9.78649 5.71086 9.86461 5.72388 9.90367C5.7369 9.94925 5.76457 9.99319 5.80688 10.0355C5.8492 10.0778 5.88989 10.1088 5.92896 10.1283L6.08521 10.2064L6.21216 10.2748C6.24471 10.2878 6.30493 10.322 6.39282 10.3773C6.48071 10.4326 6.5507 10.4701 6.60278 10.4896C6.66789 10.5157 6.71997 10.5287 6.75903 10.5287C6.7981 10.5287 6.8453 10.5205 6.90063 10.5043C6.95597 10.488 6.99992 10.4766 7.03247 10.4701C7.13013 10.4571 7.22453 10.5059 7.31567 10.6166C7.40682 10.7272 7.47518 10.7956 7.52075 10.8216C7.75513 10.9453 7.93416 10.9811 8.05786 10.9291C8.04484 10.9356 8.04647 10.96 8.06274 11.0023C8.07902 11.0446 8.10506 11.0951 8.14087 11.1537C8.17668 11.2123 8.20597 11.2595 8.22876 11.2953C8.25155 11.3311 8.26945 11.3588 8.28247 11.3783C8.31502 11.4173 8.37362 11.4662 8.45825 11.5248C8.54289 11.5834 8.60148 11.6322 8.63403 11.6713C8.66664 11.6495 8.68791 11.6255 8.69783 11.5992C8.68779 11.6485 8.7121 11.7083 8.77075 11.7787C8.83586 11.8568 8.89445 11.8893 8.94653 11.8763C9.03768 11.8568 9.08325 11.7526 9.08325 11.5638C8.88143 11.6615 8.72192 11.6029 8.60474 11.388C8.60474 11.3815 8.5966 11.3636 8.58032 11.3343C8.56405 11.305 8.55103 11.2774 8.54126 11.2513C8.53149 11.2253 8.52336 11.1976 8.51685 11.1683C8.51034 11.139 8.51034 11.1146 8.51685 11.0951C8.52336 11.0755 8.53963 11.0658 8.56567 11.0658C8.62427 11.0658 8.65682 11.0544 8.66333 11.0316C8.66984 11.0088 8.66333 10.9681 8.6438 10.9095C8.62427 10.8509 8.61125 10.8086 8.60474 10.7826C8.59823 10.7305 8.56242 10.6654 8.49731 10.5873C8.43221 10.5091 8.39315 10.4603 8.38013 10.4408C8.34758 10.4994 8.29549 10.5254 8.22388 10.5189C8.15226 10.5124 8.10018 10.4831 8.06763 10.431C8.06763 10.4375 8.06274 10.4554 8.05298 10.4847C8.04321 10.514 8.03833 10.5352 8.03833 10.5482C7.95369 10.5482 7.90487 10.5449 7.89185 10.5384C7.89836 10.5189 7.90649 10.4619 7.91626 10.3675C7.92603 10.2731 7.93742 10.1999 7.95044 10.1478C7.95695 10.1218 7.97485 10.0827 8.00415 10.0306C8.03345 9.97854 8.05786 9.93134 8.07739 9.88902C8.09692 9.84671 8.10994 9.80602 8.11646 9.76695C8.12297 9.72789 8.10832 9.69697 8.07251 9.67418C8.0367 9.65139 7.97974 9.64326 7.90161 9.64977C7.77791 9.65628 7.69328 9.72138 7.64771 9.84508C7.64119 9.86461 7.63143 9.89879 7.61841 9.94762C7.60539 9.99645 7.58911 10.0339 7.56958 10.0599C7.55005 10.086 7.52075 10.1088 7.48169 10.1283C7.43612 10.1478 7.35799 10.1543 7.24731 10.1478C7.13664 10.1413 7.05851 10.125 7.01294 10.099C6.9283 10.0469 6.85506 9.9525 6.79321 9.81578C6.73136 9.67906 6.70044 9.55862 6.70044 9.45445C6.70044 9.38935 6.70858 9.30309 6.72485 9.19567C6.74113 9.08824 6.7509 9.00686 6.75415 8.95152C6.75741 8.89619 6.7395 8.81643 6.70044 8.71227C6.71997 8.69925 6.74927 8.66832 6.78833 8.61949C6.82739 8.57067 6.85994 8.53649 6.88599 8.51695C6.89901 8.51044 6.91366 8.50556 6.92993 8.50231C6.94621 8.49905 6.96086 8.49905 6.97388 8.50231C6.9869 8.50556 6.99992 8.50068 7.01294 8.48766C7.02596 8.47464 7.03573 8.4551 7.04224 8.42906C7.03573 8.42255 7.02271 8.41279 7.00317 8.39977C6.99012 8.38672 6.97998 8.37803 6.97274 8.3737C7.02088 8.38933 7.11078 8.38338 7.24243 8.35582C7.38241 8.32652 7.47192 8.33141 7.51099 8.37047C7.60864 8.44208 7.68026 8.43557 7.72583 8.35094C7.72583 8.34443 7.71769 8.3135 7.70142 8.25816C7.68514 8.20283 7.68351 8.15888 7.69653 8.12633C7.72909 8.30211 7.82349 8.33141 7.97974 8.21422C7.99927 8.23375 8.04972 8.25003 8.1311 8.26305C8.21248 8.27607 8.26945 8.29234 8.302 8.31188C8.32153 8.3249 8.34432 8.3428 8.37036 8.36559C8.3964 8.38837 8.41431 8.40302 8.42407 8.40953C8.43384 8.41604 8.45011 8.41442 8.4729 8.40465C8.49569 8.39488 8.52336 8.37372 8.55591 8.34117C8.62101 8.43232 8.66008 8.51044 8.6731 8.57555C8.74471 8.83596 8.80656 8.97919 8.85864 9.00524C8.90422 9.02477 8.94002 9.03128 8.96606 9.02477C8.99211 9.01826 9.00675 8.98733 9.01001 8.93199C9.01327 8.87665 9.01327 8.83108 9.01001 8.79527C9.00675 8.75947 9.00187 8.71878 8.99536 8.6732L8.9856 8.59508V8.4193L8.97583 8.34117C8.87817 8.32164 8.81795 8.28258 8.79517 8.22399C8.77238 8.16539 8.77726 8.10517 8.80981 8.04332C8.84237 7.98147 8.8912 7.92125 8.9563 7.86266C8.96281 7.85615 8.98885 7.84475 9.03442 7.82848C9.08 7.8122 9.13045 7.79104 9.18579 7.765C9.24113 7.73896 9.28182 7.71292 9.30786 7.68688C9.44458 7.56318 9.49341 7.44925 9.45435 7.34508C9.49992 7.34508 9.53573 7.31578 9.56177 7.25719C9.55526 7.25719 9.53898 7.24742 9.51294 7.22789C9.4869 7.20836 9.46248 7.19208 9.4397 7.17906C9.41691 7.16604 9.40226 7.15953 9.39575 7.15953C9.45435 7.12698 9.46086 7.0749 9.41528 7.00328C9.44784 6.98375 9.47225 6.94794 9.48853 6.89586C9.5048 6.84378 9.52922 6.81122 9.56177 6.7982C9.62036 6.87633 9.68872 6.88284 9.76685 6.81774C9.81893 6.76565 9.82218 6.71357 9.77661 6.66149C9.80916 6.61591 9.8759 6.58173 9.97681 6.55895C10.0777 6.53616 10.1379 6.50524 10.1575 6.46617C10.203 6.47919 10.2291 6.47268 10.2356 6.44664C10.2421 6.4206 10.2454 6.38154 10.2454 6.32945C10.2454 6.27737 10.2551 6.23831 10.2747 6.21227C10.3007 6.17971 10.3495 6.15042 10.4211 6.12438C10.4928 6.09833 10.5351 6.08206 10.5481 6.07555L10.7141 5.96813C10.731 5.94558 10.7333 5.93279 10.7209 5.92977C10.8352 5.94068 10.9339 5.90463 11.0168 5.82164C11.082 5.75003 11.0624 5.68492 10.9583 5.62633C10.9778 5.58727 10.968 5.55634 10.929 5.53356C10.8899 5.51077 10.8411 5.49287 10.7825 5.47984C10.802 5.47333 10.8394 5.47171 10.8948 5.47496C10.9501 5.47822 10.9843 5.47333 10.9973 5.46031C11.095 5.39521 11.0722 5.34313 10.929 5.30406C10.8183 5.27151 10.6783 5.31057 10.509 5.42125ZM8.40942 2.18883C8.40877 2.18857 8.40813 2.18831 8.40749 2.18805L8.40942 2.18883ZM12.3449 12.1401C11.4009 13.1362 10.2583 13.7514 8.9172 13.9858C8.90418 13.9207 8.89767 13.8686 8.89767 13.8295C8.89116 13.7775 8.91395 13.7075 8.96603 13.6196C9.01811 13.5317 9.04416 13.465 9.04416 13.4194C8.93999 13.3933 8.90093 13.3087 8.92697 13.1655C8.93999 13.0678 9.03439 12.9376 9.21017 12.7748C9.33387 12.6642 9.37293 12.5079 9.32736 12.3061C9.30783 12.2215 9.29155 12.0978 9.27853 11.935C9.26597 11.778 9.25341 11.6664 9.24084 11.6003C9.24746 11.6171 9.27793 11.6326 9.33224 11.6469C9.39409 11.6632 9.43152 11.6844 9.44455 11.7104C9.45757 11.6909 9.47384 11.6551 9.49337 11.603C9.51291 11.5509 9.53244 11.5118 9.55197 11.4858C9.56499 11.4663 9.59266 11.4418 9.63498 11.4125C9.67729 11.3832 9.70496 11.3653 9.71798 11.3588C9.731 11.3523 9.7603 11.3312 9.80587 11.2954C9.85145 11.2595 9.88888 11.2319 9.91818 11.2123C9.94748 11.1928 9.98654 11.1782 10.0354 11.1684C10.0842 11.1586 10.1184 11.1733 10.1379 11.2123C10.1705 11.2514 10.1639 11.3116 10.1184 11.393C10.0728 11.4744 10.0728 11.5314 10.1184 11.5639C10.1249 11.5444 10.1314 11.5021 10.1379 11.437C10.1444 11.3719 10.1639 11.323 10.1965 11.2905C10.2356 11.2514 10.273 11.2286 10.3088 11.2221C10.3446 11.2156 10.3772 11.2205 10.4065 11.2368C10.4358 11.253 10.4699 11.2758 10.509 11.3051C10.5481 11.3344 10.5839 11.3523 10.6164 11.3588C10.7141 11.3914 10.8313 11.463 10.968 11.5737C10.9615 11.5672 10.9615 11.559 10.968 11.5493C10.9745 11.5395 10.9875 11.5297 11.007 11.52C11.0266 11.5102 11.0445 11.5004 11.0608 11.4907C11.077 11.4809 11.0949 11.4728 11.1145 11.4663L11.1438 11.4565C11.1893 11.4565 11.2219 11.4532 11.2414 11.4467C11.261 11.4402 11.2886 11.4467 11.3244 11.4663C11.3602 11.4858 11.3846 11.5004 11.3977 11.5102C11.4107 11.52 11.4335 11.5379 11.466 11.5639C11.4986 11.59 11.5214 11.6095 11.5344 11.6225C11.5539 11.6355 11.5897 11.6583 11.6418 11.6909C11.6939 11.7234 11.7346 11.7495 11.7639 11.769C11.7932 11.7885 11.8192 11.8178 11.842 11.8569C11.8648 11.8959 11.8729 11.9383 11.8664 11.9838C11.9055 11.9903 11.9836 12.0164 12.1008 12.062C12.1203 12.075 12.161 12.0864 12.2229 12.0961C12.2847 12.1059 12.3254 12.1206 12.3449 12.1401ZM9.23947 11.5932C9.23993 11.5955 9.24039 11.5979 9.24084 11.6003C9.23993 11.5979 9.23947 11.5956 9.23947 11.5932Z" fill="white"/>
</g>
<defs>
<clipPath id="clip0_0_16785">
<rect width="16" height="16" fill="white"/>
</clipPath>
</defs>
</svg>
