<svg width="24" height="24" viewBox="0 0 24 24" fill="none" xmlns="http://www.w3.org/2000/svg">
<path fill-rule="evenodd" clip-rule="evenodd" d="M7.44536 12.4905C9.40127 12.4905 10.9908 10.8546 10.9908 8.84162C10.9908 6.82866 9.40127 5.19275 7.44536 5.19275C5.48945 5.19275 3.8999 6.82866 3.8999 8.84162C3.8999 10.8546 5.48945 12.4905 7.44536 12.4905Z" fill="#0A6ADA"/>
<path fill-rule="evenodd" clip-rule="evenodd" d="M11.8182 5.27877H19.2727C21.8845 5.27877 24 7.45593 24 10.1439V20.8988C24 21.6345 23.4036 22.2308 22.668 22.2308H22.032C21.2964 22.2308 20.7 21.6344 20.7 20.8988V17.4417H3.1V20.8988C3.1 21.6345 2.50364 22.2308 1.768 22.2308H1.332C0.596357 22.2308 0 21.6345 0 20.8988V4.02801C0 3.37531 0.529118 2.84619 1.18182 2.84619C1.83452 2.84619 2.36364 3.37531 2.36364 4.02801V13.7928H11.8182V5.27877ZM10.6364 7.78739C10.6364 9.80035 9.04683 11.4363 7.09092 11.4363C5.13501 11.4363 3.54546 9.80035 3.54546 7.78739C3.54546 5.77443 5.13501 4.13852 7.09092 4.13852C9.04683 4.13852 10.6364 5.77443 10.6364 7.78739Z" fill="white"/>
</svg>
