<svg width="18" height="18" viewBox="0 0 18 18" fill="none" xmlns="http://www.w3.org/2000/svg">
<g opacity="0.8" clip-path="url(#clip0_0_16750)">
<path d="M5 3.55267C5 2.86232 5.55964 2.30267 6.25 2.30267H16.75C17.4403 2.30267 18 2.86232 18 3.55267V3.68425C18 4.3746 17.4403 4.93425 16.75 4.93425H6.25C5.55964 4.93425 5 4.3746 5 3.68425V3.55267Z" fill="white"/>
<path d="M5 8.8158C5 8.12544 5.55964 7.5658 6.25 7.5658H16.75C17.4403 7.5658 18 8.12544 18 8.8158V8.94737C18 9.63772 17.4403 10.1974 16.75 10.1974H6.25C5.55964 10.1974 5 9.63772 5 8.94737V8.8158Z" fill="white"/>
<path d="M0 14.079C0 13.3886 0.559644 12.829 1.25 12.829H16.75C17.4403 12.829 18 13.3886 18 14.079V14.2106C18 14.9009 17.4403 15.4606 16.75 15.4606H1.25C0.559645 15.4606 0 14.9009 0 14.2106V14.079Z" fill="white"/>
</g>
<defs>
<clipPath id="clip0_0_16750">
<rect width="18" height="18" fill="white"/>
</clipPath>
</defs>
</svg>
