<svg width="16" height="16" viewBox="0 0 16 16" fill="none" xmlns="http://www.w3.org/2000/svg">
<g clip-path="url(#clip0_0_16792)">
<path d="M13.6839 0.113342H1.91599C0.982966 0.113342 0.234863 0.835885 0.234863 1.71899V12.3101C0.234863 13.1932 0.982966 13.9158 1.91599 13.9158H5.27825L7.79994 16L10.3216 13.9158H13.6839C14.6085 13.9158 15.365 13.1932 15.365 12.3101V1.71899C15.365 0.835885 14.6085 0.113342 13.6839 0.113342Z" fill="#328CFF"/>
<path fill-rule="evenodd" clip-rule="evenodd" d="M13.6839 0.113342H1.91599C0.982966 0.113342 0.234863 0.835885 0.234863 1.71899V12.3101C0.234863 13.1932 0.982966 13.9158 1.91599 13.9158H5.27825L7.79994 16L10.3216 13.9158H13.6839C14.6085 13.9158 15.365 13.1932 15.365 12.3101V1.71899C15.365 0.835885 14.6085 0.113342 13.6839 0.113342ZM8.48769 12.4335H7.11223V11.1367H8.48769V12.4335ZM9.29237 7.35634L9.91133 6.75978C10.3033 6.39017 10.5509 5.87142 10.5509 5.3008C10.5509 3.86776 9.31988 2.70706 7.79999 2.70706C6.2801 2.70706 5.04905 3.86776 5.04905 5.3008H6.42452C6.42452 4.58752 7.04348 4.00393 7.79999 4.00393C8.5565 4.00393 9.17546 4.58752 9.17546 5.3008C9.17546 5.65744 9.02416 5.98166 8.7697 6.21509L7.9169 7.03212C7.42174 7.50548 7.11226 8.15391 7.11226 8.86719V9.19141H8.48772C8.48772 8.21876 8.7972 7.8297 9.29237 7.35634Z" fill="white"/>
</g>
<defs>
<clipPath id="clip0_0_16792">
<rect width="16" height="16" fill="white"/>
</clipPath>
</defs>
</svg>
