<svg width="24" height="24" viewBox="0 0 24 24" fill="none" xmlns="http://www.w3.org/2000/svg">
<g clip-path="url(#clip0_0_16927)">
<path fill-rule="evenodd" clip-rule="evenodd" d="M4.20508 5.61233L5.14024 3.25848H19.7827L20.7179 5.61233H4.20508Z" fill="#328CFF"/>
<path fill-rule="evenodd" clip-rule="evenodd" d="M18.9488 2.46156C19.7272 2.46156 20.3877 2.97848 20.6236 3.70463L23.077 11.0769V20.9231C23.077 21.6 22.5462 22.1539 21.8975 22.1539H20.718C20.0693 22.1539 19.5385 21.6 19.5385 20.9231V19.6923H5.38465V20.9231C5.38465 21.6 4.85388 22.1539 4.20517 22.1539H3.02568C2.37696 22.1539 1.84619 21.6 1.84619 20.9231V11.0769L4.29953 3.70463C4.54722 2.97848 5.19594 2.46156 5.9744 2.46156H8.92311C8.92311 1.61189 9.61191 0.923096 10.4616 0.923096H14.4616C15.3112 0.923096 16 1.61189 16 2.46156H18.9488ZM4.20517 14.1539C4.20517 15.1754 4.99542 16 5.9744 16C6.95337 16 7.74363 15.1754 7.74363 14.1539C7.74363 13.1323 6.95337 12.3077 5.9744 12.3077C4.99542 12.3077 4.20517 13.1323 4.20517 14.1539ZM18.9488 16C17.9698 16 17.1795 15.1754 17.1795 14.1539C17.1795 13.1323 17.9698 12.3077 18.9488 12.3077C19.9277 12.3077 20.718 13.1323 20.718 14.1539C20.718 15.1754 19.9277 16 18.9488 16ZM5.9744 4.30771L4.20517 9.84617H20.718L18.9488 4.30771H5.9744Z" fill="white"/>
</g>
<defs>
<clipPath id="clip0_0_16927">
<rect width="24" height="24" fill="white"/>
</clipPath>
</defs>
</svg>
