<svg width="16" height="16" viewBox="0 0 16 16" fill="none" xmlns="http://www.w3.org/2000/svg">
<g clip-path="url(#clip0_0_16764)">
<path d="M1.62505 1.72021H14.4028C15.2849 1.72021 16 2.48639 16 3.43152V14.3839C16 15.329 15.2849 16.0952 14.4028 16.0952H1.62505C0.742932 16.0952 0.027832 15.329 0.027832 14.3839V3.43152C0.027832 2.48639 0.742932 1.72021 1.62505 1.72021Z" fill="white"/>
<path d="M12.79 7.63202H2.40812C1.74653 7.63202 1.21021 8.20665 1.21021 8.9155V10.0278H4.87246C5.08426 10.0278 5.28739 10.118 5.43716 10.2785L6.23577 11.1341C6.59734 11.5215 7.08774 11.7392 7.59908 11.7392C8.11042 11.7392 8.60082 11.5215 8.9624 11.1341L9.76101 10.2785C9.91077 10.118 10.1139 10.0278 10.3257 10.0278H13.988V8.9155C13.988 8.20665 13.4516 7.63202 12.79 7.63202Z" fill="#328CFF"/>
<path d="M2.82291 0.00891113C2.16132 0.00891113 1.625 0.583545 1.625 1.29239V5.14283H14.4028V1.29239C14.4028 0.583545 13.8664 0.00891113 13.2048 0.00891113H2.82291Z" fill="#328CFF"/>
<path d="M1.75513 3.43152C0.957445 3.43152 0.310791 4.00615 0.310791 4.715V7.19639H15.7171V4.715C15.7171 4.00615 15.0705 3.43152 14.2728 3.43152H1.75513Z" fill="white"/>
</g>
<defs>
<clipPath id="clip0_0_16764">
<rect width="16" height="16" fill="white"/>
</clipPath>
</defs>
</svg>
